<svg xmlns="http://www.w3.org/2000/svg" xmlns:xlink="http://www.w3.org/1999/xlink" width="52" height="50" viewBox="0 0 52 50"><defs><path id="27ama" d="M148.29 40a1.67 1.67 0 0 1 1.71 1.7v35.77c0 .34-.1.66-.31.96-.21.3-.47.52-.78.63l-23.2 8.83c-.15.07-.36.11-.62.11-.27 0-.48-.04-.63-.11l-23.32-8.83a1.6 1.6 0 0 1-.83-.63c-.2-.3-.31-.62-.31-.96V41.7a1.7 1.7 0 0 1 1.71-1.7h46.58z"/></defs><g><g transform="translate(-99 -39)"><use xlink:href="#27ama"/><use fill="#fa6900" xlink:href="#27ama"/></g><g transform="translate(-99 -39)"><g fill="#fff" font-family="'OpenSans','OpenSans-Bold'" font-size="12" font-style="none" font-weight="700" style="text-transform:uppercase"><text dominant-baseline="text-before-edge" font-family="Helvetica, Arial, sans-serif" transform="translate(111 47)"><tspan style="font-kerning:normal">+</tspan></text></g></g></g></svg>