<svg width="32" height="32" xmlns="http://www.w3.org/2000/svg">

 <g>
  <title>background</title>
  <rect fill="none" id="canvas_background" height="402" width="582" y="-1" x="-1"/>
 </g>
 <g>
  <title>Layer 1</title>
  <path fill="#ffffff" stroke-width="0" id="svg_1" d="m4,10l24,0c1.104,0 2,-0.896 2,-2s-0.896,-2 -2,-2l-24,0c-1.104,0 -2,0.896 -2,2s0.896,2 2,2zm24,4l-24,0c-1.104,0 -2,0.896 -2,2s0.896,2 2,2l24,0c1.104,0 2,-0.896 2,-2s-0.896,-2 -2,-2zm0,8l-24,0c-1.104,0 -2,0.896 -2,2s0.896,2 2,2l24,0c1.104,0 2,-0.896 2,-2s-0.896,-2 -2,-2z"/>
  <path d="m10.897378,3.884296c0,-0.145098 -0.041064,-0.311218 0.048366,-0.435295c0.1414,-0.196183 0.586439,-0.439512 1.064054,-0.580393c0.697395,-0.205709 1.164016,-0.206243 1.741179,-0.145098c0.688644,0.072955 1.434886,0.472997 2.418304,0.87059c1.191429,0.481691 1.913641,0.832223 2.515038,1.015687c0.235886,0.07196 0.276028,0.159265 0.241829,0.193464c-0.034199,0.034199 -0.196083,0.11766 -0.338562,0.145099c-0.25576,0.049255 -0.532026,0.145098 -1.112419,0.24183l-0.338564,0.048366l-0.435295,0.145098" id="svg_2" fill-opacity="null" stroke-opacity="null" stroke-width="0" stroke="null" fill="none"/>
  <path stroke="null" d="m16.411112,6.06077c0,0.080267 0,0.160534 0,0.222964c0,0.026756 -0.054234,0.034592 0.048367,0.053511c0.1026,0.018919 0.110897,0.020449 0.145098,0.026756c0.1026,0.018919 0.187597,0.007836 0.290197,0.026756c0.1026,0.018919 0,0.053511 0,0.098104c0,0.107023 0.217291,0.220979 0.290195,0.356743c0.071487,0.133128 0.145098,0.231883 0.145098,0.338906l0,0.080267l0,0.053511" id="svg_3" fill-opacity="null" stroke-opacity="null" stroke-width="0" fill="none"/>
 </g>
</svg>